shantell--light--organic.ufo
<glyph name="quotedbl" format="2">
	<unicode hex="0022"/>
	<advance width="419"/>
	<outline>
		<contour>
			<point x="91" y="572.4413450699" type="curve" smooth="yes"/>
			<point x="106" y="572.4413450699"/>
			<point x="114" y="582.4413450699"/>
			<point x="119" y="598.4413450699" type="curve" smooth="yes"/>
			<point x="141" y="663.4413450699"/>
			<point x="157" y="757.4413450699"/>
			<point x="140" y="837.4413450699" type="curve" smooth="yes"/>
			<point x="137" y="853.4413450699"/>
			<point x="122" y="864.4413450699"/>
			<point x="106" y="864.4413450699" type="curve" smooth="yes"/>
			<point x="83" y="864.4413450699"/>
			<point x="68" y="845.4413450699"/>
			<point x="73" y="824.4413450699" type="curve" smooth="yes"/>
			<point x="88" y="754.4413450699"/>
			<point x="73" y="681.4413450699"/>
			<point x="58" y="627.4413450699" type="curve" smooth="yes"/>
			<point x="47" y="590.4413450699"/>
			<point x="70" y="572.4413450699"/>
		</contour>
		<contour>
			<point x="298" y="572.4413450699" type="curve" smooth="yes"/>
			<point x="313" y="572.4413450699"/>
			<point x="325" y="582.4413450699"/>
			<point x="329" y="598.4413450699" type="curve" smooth="yes"/>
			<point x="347" y="665.4413450699"/>
			<point x="358" y="752.4413450699"/>
			<point x="346" y="836.4413450699" type="curve" smooth="yes"/>
			<point x="344" y="853.4413450699"/>
			<point x="329" y="864.4413450699"/>
			<point x="313" y="864.4413450699" type="curve" smooth="yes"/>
			<point x="290" y="864.4413450699"/>
			<point x="278" y="845.4413450699"/>
			<point x="280" y="824.4413450699" type="curve" smooth="yes"/>
			<point x="287.3261234214" y="751.1801108554"/>
			<point x="276" y="677.4413450699"/>
			<point x="263" y="618.4413450699" type="curve" smooth="yes"/>
			<point x="256" y="586.4413450699"/>
			<point x="275.7272727273" y="572.4413450699"/>
		</contour>
	</outline>
</glyph>
<glyph name="ampersand" format="2">
	<unicode hex="0026"/>
	<advance width="600"/>
	<outline>
		<contour>
			<point x="451" y="418.913298425"/>
			<point x="415" y="480.913298425"/>
			<point x="290" y="480.913298425" type="curve" smooth="yes"/>
			<point x="176.6298342541" y="480.913298425"/>
			<point x="110" y="429.7194999754"/>
			<point x="110" y="353.913298425" type="curve" smooth="yes"/>
			<point x="110" y="274.281298425"/>
			<point x="156.0195874564" y="221.8983271208"/>
			<point x="313" y="101.913298425" type="curve" smooth="yes"/>
			<point x="567" y="-91.086701575"/>
			<point x="626" y="-147.086701575"/>
			<point x="626" y="-205.086701575" type="curve" smooth="yes"/>
			<point x="626" y="-235.3018914484"/>
			<point x="606.2830188679" y="-282.086701575"/>
			<point x="571" y="-282.086701575" type="curve" smooth="yes"/>
			<point x="552.3793103448" y="-282.086701575"/>
			<point x="544" y="-270.0152730036"/>
			<point x="544" y="-256.086701575" type="curve" smooth="yes"/>
			<point x="544" y="-236.086701575"/>
			<point x="556" y="-229.086701575"/>
			<point x="556" y="-213.086701575" type="curve" smooth="yes"/>
			<point x="556" y="-176.086701575"/>
			<point x="510" y="-137.086701575"/>
			<point x="271" y="47.913298425" type="curve" smooth="yes"/>
			<point x="83" y="192.913298425"/>
			<point x="41" y="258.913298425"/>
			<point x="41" y="351.913298425" type="curve" smooth="yes"/>
			<point x="41" y="450.913298425"/>
			<point x="113" y="545.913298425"/>
			<point x="290" y="545.913298425" type="curve" smooth="yes"/>
			<point x="377.5532994924" y="545.913298425"/>
			<point x="436" y="521.913298425"/>
			<point x="486" y="490.913298425" type="curve" smooth="yes"/>
			<point x="511" y="474.913298425"/>
			<point x="516" y="463.913298425"/>
			<point x="516" y="450.913298425" type="curve" smooth="yes"/>
			<point x="516" y="431.913298425"/>
			<point x="506" y="418.913298425"/>
			<point x="486" y="418.913298425" type="curve" smooth="yes"/>
		</contour>
		<contour>
			<point x="174" y="134.913298425" type="curve" smooth="yes"/>
			<point x="130" y="94.913298425"/>
			<point x="115" y="57.913298425"/>
			<point x="115" y="0.913298425" type="curve" smooth="yes"/>
			<point x="115" y="-61.086701575"/>
			<point x="158" y="-123.086701575"/>
			<point x="210" y="-123.086701575" type="curve" smooth="yes"/>
			<point x="321" y="-123.086701575"/>
			<point x="411.1043364444" y="-12.6870416045"/>
			<point x="548" y="231.913298425" type="curve" smooth="yes"/>
			<point x="561.1407166189" y="255.566588339"/>
			<point x="569" y="262.913298425"/>
			<point x="582" y="262.913298425" type="curve" smooth="yes"/>
			<point x="602" y="262.913298425"/>
			<point x="614" y="242.913298425"/>
			<point x="614" y="222.913298425" type="curve" smooth="yes"/>
			<point x="614" y="212.913298425"/>
			<point x="612" y="206.913298425"/>
			<point x="602" y="188.913298425" type="curve" smooth="yes"/>
			<point x="445" y="-91.086701575"/>
			<point x="330" y="-187.086701575"/>
			<point x="207" y="-187.086701575" type="curve" smooth="yes"/>
			<point x="124" y="-187.086701575"/>
			<point x="47" y="-104.086701575"/>
			<point x="47" y="-1.086701575" type="curve" smooth="yes"/>
			<point x="47" y="71.913298425"/>
			<point x="80" y="133.913298425"/>
			<point x="131" y="175.913298425" type="curve" smooth="yes"/>
			<point x="146" y="187.913298425"/>
			<point x="168" y="185.913298425"/>
			<point x="179" y="171.913298425" type="curve" smooth="yes"/>
			<point x="188" y="160.913298425"/>
			<point x="183" y="142.913298425"/>
		</contour>
	</outline>
</glyph>
<glyph name="parenleft" format="2">
	<unicode hex="0028"/>
	<advance width="421"/>
	<outline>
		<contour>
			<point x="374" y="591.0605381528" type="curve" smooth="yes"/>
			<point x="263" y="445.0605381528"/>
			<point x="162" y="249.0605381528"/>
			<point x="162" y="21.0605381528" type="curve" smooth="yes"/>
			<point x="162" y="-175.9394618472"/>
			<point x="231" y="-294.9394618472"/>
			<point x="356" y="-343.9394618472" type="curve" smooth="yes"/>
			<point x="382" y="-353.9394618472"/>
			<point x="391" y="-367.9394618472"/>
			<point x="391" y="-381.9394618472" type="curve" smooth="yes"/>
			<point x="391" y="-399.8297885702"/>
			<point x="378" y="-415.9394618472"/>
			<point x="365" y="-415.9394618472" type="curve" smooth="yes"/>
			<point x="349" y="-415.9394618472"/>
			<point x="342" y="-413.9394618472"/>
			<point x="318" y="-403.9394618472" type="curve" smooth="yes"/>
			<point x="183" y="-349.9394618472"/>
			<point x="92" y="-215.9394618472"/>
			<point x="92" y="21.0605381528" type="curve" smooth="yes"/>
			<point x="92" y="265.0605381528"/>
			<point x="199" y="475.0605381528"/>
			<point x="320" y="635.0605381528" type="curve" smooth="yes"/>
			<point x="332" y="651.0605381528"/>
			<point x="343" y="656.0605381528"/>
			<point x="353" y="656.0605381528" type="curve" smooth="yes"/>
			<point x="376" y="656.0605381528"/>
			<point x="388" y="639.0605381528"/>
			<point x="388" y="621.0605381528" type="curve" smooth="yes"/>
			<point x="388" y="613.0605381528"/>
			<point x="385" y="606.0605381528"/>
		</contour>
	</outline>
</glyph>
<glyph name="period" format="2">
	<unicode hex="002E"/>
	<advance width="320"/>
	<outline>
		<contour>
			<point x="176" y="170.1002298241" type="curve" smooth="yes"/>
			<point x="210" y="170.1002298241"/>
			<point x="223" y="196.1002298241"/>
			<point x="223" y="221.1002298241" type="curve" smooth="yes"/>
			<point x="223" y="256.1002298241"/>
			<point x="194" y="299.1002298241"/>
			<point x="146" y="299.1002298241" type="curve" smooth="yes"/>
			<point x="120" y="299.1002298241"/>
			<point x="98" y="279.1002298241"/>
			<point x="98" y="251.1002298241" type="curve" smooth="yes"/>
			<point x="98" y="210.1002298241"/>
			<point x="134" y="170.1002298241"/>
		</contour>
	</outline>
</glyph>
<glyph name="slash" format="2">
	<unicode hex="002F"/>
	<advance width="330"/>
	<outline>
		<contour>
			<point x="412" y="900.4750789376" type="curve" smooth="yes"/>
			<point x="228.3282213789" y="595.0209253613"/>
			<point x="138" y="327.4750789376"/>
			<point x="117" y="51.4750789376" type="curve" smooth="yes"/>
			<point x="115" y="22.4750789376"/>
			<point x="103" y="9.4750789376"/>
			<point x="85" y="9.4750789376" type="curve" smooth="yes"/>
			<point x="62" y="9.4750789376"/>
			<point x="45.9994436229" y="26.467011469"/>
			<point x="48" y="55.4750789376" type="curve" smooth="yes"/>
			<point x="70" y="353.4750789376"/>
			<point x="169" y="640.4750789376"/>
			<point x="342" y="932.4750789376" type="curve" smooth="yes"/>
			<point x="361" y="964.4750789376"/>
			<point x="374" y="977.4750789376"/>
			<point x="392" y="977.4750789376" type="curve" smooth="yes"/>
			<point x="415" y="977.4750789376"/>
			<point x="440" y="947.4750789376"/>
		</contour>
	</outline>
</glyph>
<glyph name="one" format="2">
	<unicode hex="0031"/>
	<advance width="700"/>
	<image fileName="zero.png" xScale="2.3662938837" yScale="2.3662938837" xOffset="-35.8248343698" yOffset="-212.644631698" color="0,0,0,0.16492"/>
	<outline>
		<contour>
			<point x="91" y="107.1347369409"/>
			<point x="106" y="115.1347369409"/>
			<point x="141" y="115.1347369409" type="curve" smooth="yes"/>
			<point x="252" y="115.1347369409"/>
			<point x="417" y="124.1347369409"/>
			<point x="545" y="124.1347369409" type="curve" smooth="yes"/>
			<point x="585.7272727273" y="124.1347369409"/>
			<point x="630" y="113.1347369409"/>
			<point x="629" y="85.1347369409" type="curve" smooth="yes"/>
			<point x="628" y="70.1347369409"/>
			<point x="611.6935483871" y="58.1347369409"/>
			<point x="592" y="58.1347369409" type="curve" smooth="yes"/>
			<point x="476.087628866" y="58.1347369409"/>
			<point x="308" y="48.1347369409"/>
			<point x="194" y="48.1347369409" type="curve" smooth="yes"/>
			<point x="125" y="48.1347369409"/>
			<point x="91" y="64.1347369409"/>
			<point x="91" y="88.1347369409" type="curve" smooth="yes"/>
		</contour>
		<contour>
			<point x="136" y="670.1347369409" type="curve" smooth="yes"/>
			<point x="215" y="670.1347369409"/>
			<point x="305" y="694.1347369409"/>
			<point x="396" y="749.1347369409" type="curve" smooth="yes"/>
			<point x="414" y="760.1347369409"/>
			<point x="430" y="765.1347369409"/>
			<point x="443" y="765.1347369409" type="curve" smooth="yes"/>
			<point x="468" y="765.1347369409"/>
			<point x="483" y="748.1347369409"/>
			<point x="483" y="721.1347369409" type="curve" smooth="yes"/>
			<point x="483" y="680.1347369409"/>
			<point x="419" y="462.1347369409"/>
			<point x="419" y="119.1347369409" type="curve" smooth="yes"/>
			<point x="419" y="101.1347369409"/>
			<point x="408" y="86.1347369409"/>
			<point x="395" y="86.1347369409" type="curve" smooth="yes"/>
			<point x="372" y="86.1347369409"/>
			<point x="352" y="105.1347369409"/>
			<point x="352" y="127.1347369409" type="curve" smooth="yes"/>
			<point x="352" y="310.1347369409"/>
			<point x="379" y="533.1347369409"/>
			<point x="409" y="709.1347369409" type="curve"/>
			<point x="430" y="695.1347369409" type="line"/>
			<point x="339" y="636.1347369409"/>
			<point x="245" y="605.1347369409"/>
			<point x="151" y="605.1347369409" type="curve" smooth="yes"/>
			<point x="127" y="605.1347369409"/>
			<point x="107" y="618.1347369409"/>
			<point x="107" y="644.1347369409" type="curve" smooth="yes"/>
			<point x="107" y="660.1347369409"/>
			<point x="118" y="670.1347369409"/>
		</contour>
	</outline>
</glyph>
<glyph name="colon" format="2">
	<unicode hex="003A"/>
	<advance width="320"/>
	<outline>
		<contour>
			<point x="166" y="510.8253632754" type="curve" smooth="yes"/>
			<point x="207" y="510.8253632754"/>
			<point x="223" y="536.8253632754"/>
			<point x="223" y="561.8253632754" type="curve" smooth="yes"/>
			<point x="223" y="598.8253632754"/>
			<point x="198" y="639.8253632754"/>
			<point x="152" y="639.8253632754" type="curve" smooth="yes"/>
			<point x="114" y="639.8253632754"/>
			<point x="98" y="618.1586966087"/>
			<point x="98" y="587.8253632754" type="curve" smooth="yes"/>
			<point x="98" y="543.1463509297"/>
			<point x="128" y="510.8253632754"/>
		</contour>
		<contour>
			<point x="166" y="134.8253632754" type="curve" smooth="yes"/>
			<point x="207" y="134.8253632754"/>
			<point x="223" y="160.8253632754"/>
			<point x="223" y="185.8253632754" type="curve" smooth="yes"/>
			<point x="223" y="220.8253632754"/>
			<point x="198" y="263.8253632754"/>
			<point x="156" y="263.8253632754" type="curve" smooth="yes"/>
			<point x="125" y="263.8253632754"/>
			<point x="98" y="239.8253632754"/>
			<point x="98" y="205.8253632754" type="curve" smooth="yes"/>
			<point x="98" y="169.8253632754"/>
			<point x="129" y="134.8253632754"/>
		</contour>
	</outline>
</glyph>
<glyph name="at" format="2">
	<unicode hex="0040"/>
	<advance width="848"/>
	<outline>
		<contour>
			<point x="498" y="191.5348293138" type="curve" smooth="yes"/>
			<point x="397" y="181.5348293138"/>
			<point x="346" y="125.5348293138"/>
			<point x="346" y="69.5348293138" type="curve" smooth="yes"/>
			<point x="346" y="54.5348293138"/>
			<point x="346" y="38.5348293138"/>
			<point x="363" y="-1.4651706862" type="curve"/>
			<point x="325" y="41.5348293138" type="line"/>
			<point x="361" y="20.5348293138"/>
			<point x="375" y="17.5348293138"/>
			<point x="387" y="17.5348293138" type="curve" smooth="yes"/>
			<point x="417" y="17.5348293138"/>
			<point x="431" y="33.5348293138"/>
			<point x="449" y="78.5348293138" type="curve" smooth="yes"/>
			<point x="476" y="148.5348293138"/>
			<point x="498" y="159.5348293138"/>
			<point x="526" y="159.5348293138" type="curve" smooth="yes"/>
			<point x="555" y="159.5348293138"/>
			<point x="582" y="147.5348293138"/>
			<point x="607" y="93.5348293138" type="curve" smooth="yes"/>
			<point x="635" y="33.5348293138"/>
			<point x="638" y="30.5348293138"/>
			<point x="657" y="30.5348293138" type="curve" smooth="yes"/>
			<point x="698" y="30.5348293138"/>
			<point x="710" y="91.5348293138"/>
			<point x="710" y="140.5348293138" type="curve" smooth="yes"/>
			<point x="710" y="250.3436528432"/>
			<point x="647" y="402.5348293138"/>
			<point x="459" y="402.5348293138" type="curve" smooth="yes"/>
			<point x="294" y="402.5348293138"/>
			<point x="138" y="242.5348293138"/>
			<point x="138" y="81.5348293138" type="curve" smooth="yes"/>
			<point x="138" y="-97.4651706862"/>
			<point x="287" y="-183.4651706862"/>
			<point x="447" y="-183.4651706862" type="curve" smooth="yes"/>
			<point x="637" y="-183.4651706862"/>
			<point x="648" y="-128.4651706862"/>
			<point x="684" y="-128.4651706862" type="curve" smooth="yes"/>
			<point x="703" y="-128.4651706862"/>
			<point x="711" y="-141.4651706862"/>
			<point x="711" y="-161.4651706862" type="curve" smooth="yes"/>
			<point x="711" y="-176.4651706862"/>
			<point x="704" y="-189.4651706862"/>
			<point x="685" y="-203.4651706862" type="curve" smooth="yes"/>
			<point x="646" y="-232.4651706862"/>
			<point x="582" y="-251.4651706862"/>
			<point x="447" y="-251.4651706862" type="curve" smooth="yes"/>
			<point x="245" y="-251.4651706862"/>
			<point x="70" y="-137.4651706862"/>
			<point x="70" y="81.5348293138" type="curve"/>
			<point x="70" y="276.5348293138"/>
			<point x="258" y="470.5348293138"/>
			<point x="459" y="470.5348293138" type="curve" smooth="yes"/>
			<point x="693" y="470.5348293138"/>
			<point x="778" y="280.2995351962"/>
			<point x="778" y="140.5348293138" type="curve" smooth="yes"/>
			<point x="778" y="9.5348293138"/>
			<point x="715" y="-37.4651706862"/>
			<point x="657" y="-37.4651706862" type="curve" smooth="yes"/>
			<point x="547" y="-37.4651706862"/>
			<point x="570" y="81.5348293138"/>
			<point x="510" y="106.5348293138" type="curve"/>
			<point x="535" y="106.5348293138" type="line"/>
			<point x="499" y="69.5348293138"/>
			<point x="494" y="-48.4651706862"/>
			<point x="389" y="-48.4651706862" type="curve" smooth="yes"/>
			<point x="331" y="-48.4651706862"/>
			<point x="278" y="-11.4651706862"/>
			<point x="278" y="69.5348293138" type="curve" smooth="yes"/>
			<point x="278" y="174.5348293138"/>
			<point x="390" y="259.5348293138"/>
			<point x="495" y="259.5348293138" type="curve" smooth="yes"/>
			<point x="516" y="259.5348293138"/>
			<point x="529" y="247.5348293138"/>
			<point x="529" y="228.5348293138" type="curve" smooth="yes"/>
			<point x="529" y="208.5348293138"/>
			<point x="517" y="193.5348293138"/>
		</contour>
	</outline>
</glyph>
<glyph name="C" format="2">
	<unicode hex="0043"/>
	<advance width="633"/>
	<image fileName="B_.png" xScale="2.611894476" yScale="2.611894476" xOffset="-677.7903116164" yOffset="-300.367864743" color="0,0,0,0.25523"/>
	<outline>
		<contour>
			<point x="331" y="74.7719695549" type="curve" smooth="yes"/>
			<point x="503.1679389313" y="74.7719695549"/>
			<point x="583" y="178.4765150094"/>
			<point x="583" y="230.7719695549" type="curve" smooth="yes"/>
			<point x="583" y="248.7719695549"/>
			<point x="576" y="263.7719695549"/>
			<point x="563" y="263.7719695549" type="curve" smooth="yes"/>
			<point x="527" y="263.7719695549"/>
			<point x="505.4691358025" y="139.7719695549"/>
			<point x="330" y="139.7719695549" type="curve" smooth="yes"/>
			<point x="209.1692307692" y="139.7719695549"/>
			<point x="132" y="222.7719695549"/>
			<point x="132" y="372.7719695549" type="curve" smooth="yes"/>
			<point x="132" y="555.7719695549"/>
			<point x="245.2262773723" y="730.7719695549"/>
			<point x="409" y="730.7719695549" type="curve" smooth="yes"/>
			<point x="470" y="730.7719695549"/>
			<point x="478" y="702.7719695549"/>
			<point x="478" y="674.7719695549" type="curve" smooth="yes"/>
			<point x="478" y="642.7719695549"/>
			<point x="471" y="614.7719695549"/>
			<point x="501" y="614.7719695549" type="curve" smooth="yes"/>
			<point x="531" y="614.7719695549"/>
			<point x="546" y="646.7719695549"/>
			<point x="546" y="679.7719695549" type="curve" smooth="yes"/>
			<point x="546" y="749.7719695549"/>
			<point x="509" y="795.7719695549"/>
			<point x="411" y="795.7719695549" type="curve" smooth="yes"/>
			<point x="206" y="795.7719695549"/>
			<point x="65" y="590.7719695549"/>
			<point x="65" y="373.7719695549" type="curve" smooth="yes"/>
			<point x="65" y="205.7719695549"/>
			<point x="138" y="74.7719695549"/>
		</contour>
	</outline>
</glyph>
<glyph name="N" format="2">
	<unicode hex="004E"/>
	<advance width="754"/>
	<outline>
		<contour>
			<point x="117" y="60.2399364822" type="curve" smooth="yes"/>
			<point x="135" y="60.2399364822"/>
			<point x="148" y="76.2399364822"/>
			<point x="154" y="97.2399364822" type="curve" smooth="yes"/>
			<point x="182" y="182.2399364822"/>
			<point x="193" y="285.2399364822"/>
			<point x="193" y="410.2399364822" type="curve" smooth="yes"/>
			<point x="193" y="488.2399364822"/>
			<point x="188" y="583.2399364822"/>
			<point x="175" y="709.2399364822" type="curve"/>
			<point x="164" y="705.2399364822" type="line"/>
			<point x="353" y="554.2399364822"/>
			<point x="374.4777227723" y="58.2399364822"/>
			<point x="567" y="58.2399364822" type="curve" smooth="yes"/>
			<point x="645" y="58.2399364822"/>
			<point x="658" y="164.2399364822"/>
			<point x="658" y="310.2399364822" type="curve" smooth="yes"/>
			<point x="658" y="459.2399364822"/>
			<point x="643" y="574.2399364822"/>
			<point x="669" y="703.2399364822" type="curve" smooth="yes"/>
			<point x="676" y="740.2399364822"/>
			<point x="663" y="773.2399364822"/>
			<point x="638" y="773.2399364822" type="curve" smooth="yes"/>
			<point x="617" y="773.2399364822"/>
			<point x="606" y="760.2399364822"/>
			<point x="599" y="728.2399364822" type="curve" smooth="yes"/>
			<point x="572" y="606.2399364822"/>
			<point x="588" y="462.2399364822"/>
			<point x="588" y="305.2399364822" type="curve" smooth="yes"/>
			<point x="588" y="212.0937376518"/>
			<point x="582" y="169.2399364822"/>
			<point x="553" y="124.2399364822" type="curve"/>
			<point x="576" y="136.2399364822" type="line"/>
			<point x="432" y="134.2399364822"/>
			<point x="354" y="778.2399364822"/>
			<point x="156" y="778.2399364822" type="curve" smooth="yes"/>
			<point x="124" y="778.2399364822"/>
			<point x="107" y="746.2399364822"/>
			<point x="107" y="706.2399364822" type="curve" smooth="yes"/>
			<point x="107" y="673.2399364822"/>
			<point x="123" y="525.2399364822"/>
			<point x="123" y="410.2399364822" type="curve" smooth="yes"/>
			<point x="123" y="208.2399364822"/>
			<point x="83" y="164.2399364822"/>
			<point x="83" y="111.2399364822" type="curve" smooth="yes"/>
			<point x="83" y="72.2399364822"/>
			<point x="99" y="60.2399364822"/>
		</contour>
	</outline>
</glyph>
<glyph name="Q" format="2">
	<unicode hex="0051"/>
	<advance width="716"/>
	<image fileName="B_.png" xScale="2.611894476" yScale="2.611894476" xOffset="-4656.7903116164" yOffset="-300.367864743" color="0,0,0,0.25523"/>
	<outline>
		<contour>
			<point x="441" y="446.1631043108" type="curve" smooth="yes"/>
			<point x="471" y="402.1631043108"/>
			<point x="541" y="241.1631043108"/>
			<point x="643" y="112.1631043108" type="curve" smooth="yes"/>
			<point x="669" y="80.1631043108"/>
			<point x="651" y="63.1631043108"/>
			<point x="639" y="63.1631043108" type="curve" smooth="yes"/>
			<point x="617" y="63.1631043108"/>
			<point x="602" y="70.1631043108"/>
			<point x="572" y="102.1631043108" type="curve" smooth="yes"/>
			<point x="498" y="180.1631043108"/>
			<point x="421" y="362.1631043108"/>
			<point x="367" y="441.1631043108" type="curve" smooth="yes"/>
			<point x="342" y="476.1631043108"/>
			<point x="343" y="503.1631043108"/>
			<point x="370" y="503.1631043108" type="curve" smooth="yes"/>
			<point x="399" y="503.1631043108"/>
			<point x="411" y="490.1631043108"/>
		</contour>
		<contour>
			<point x="218" y="742.1631043108" type="curve" smooth="yes"/>
			<point x="166" y="690.1631043108"/>
			<point x="137" y="576.1631043108"/>
			<point x="137" y="480.1631043108" type="curve" smooth="yes"/>
			<point x="137" y="346.1631043108"/>
			<point x="197" y="223.1631043108"/>
			<point x="360" y="223.1631043108" type="curve" smooth="yes"/>
			<point x="494" y="223.1631043108"/>
			<point x="577" y="350.1631043108"/>
			<point x="577" y="482.1631043108" type="curve" smooth="yes"/>
			<point x="577" y="651.1631043108"/>
			<point x="509" y="811.1631043108"/>
			<point x="384" y="811.1631043108" type="curve" smooth="yes"/>
			<point x="331" y="811.1631043108"/>
			<point x="264" y="765.1631043108"/>
			<point x="223" y="686.1631043108" type="curve" smooth="yes"/>
			<point x="207" y="655.1631043108"/>
			<point x="192" y="645.1631043108"/>
			<point x="169" y="645.1631043108" type="curve" smooth="yes"/>
			<point x="161" y="645.1631043108"/>
			<point x="156" y="654.1631043108"/>
			<point x="156" y="666.1631043108" type="curve" smooth="yes"/>
			<point x="156" y="755.1631043108"/>
			<point x="277" y="876.1631043108"/>
			<point x="399" y="876.1631043108" type="curve" smooth="yes"/>
			<point x="532" y="876.1631043108"/>
			<point x="644" y="713.1631043108"/>
			<point x="644" y="494.1631043108" type="curve" smooth="yes"/>
			<point x="644" y="311.1631043108"/>
			<point x="539" y="158.1631043108"/>
			<point x="360" y="158.1631043108" type="curve" smooth="yes"/>
			<point x="147" y="158.1631043108"/>
			<point x="70" y="311.1631043108"/>
			<point x="70" y="480.1631043108" type="curve" smooth="yes"/>
			<point x="70" y="705.1631043108"/>
			<point x="191" y="821.1631043108"/>
			<point x="233" y="821.1631043108" type="curve" smooth="yes"/>
			<point x="256" y="821.1631043108"/>
			<point x="264" y="806.1631043108"/>
			<point x="264" y="793.1631043108" type="curve" smooth="yes"/>
			<point x="264" y="776.1631043108"/>
			<point x="246" y="770.1631043108"/>
		</contour>
	</outline>
</glyph>
<glyph name="V" format="2">
	<unicode hex="0056"/>
	<advance width="665"/>
	<outline>
		<contour>
			<point x="304" y="60.6664844069"/>
			<point x="318" y="54.6664844069"/>
			<point x="342" y="54.6664844069" type="curve" smooth="yes"/>
			<point x="354" y="54.6664844069"/>
			<point x="365" y="63.6664844069"/>
			<point x="378" y="114.6664844069" type="curve" smooth="yes"/>
			<point x="435" y="337.6664844069"/>
			<point x="490" y="464.6664844069"/>
			<point x="616" y="680.6664844069" type="curve" smooth="yes"/>
			<point x="630" y="704.6664844069"/>
			<point x="639" y="727.6664844069"/>
			<point x="639" y="749.6664844069" type="curve" smooth="yes"/>
			<point x="639" y="763.6664844069"/>
			<point x="632" y="774.6664844069"/>
			<point x="617" y="774.6664844069" type="curve" smooth="yes"/>
			<point x="600" y="774.6664844069"/>
			<point x="594" y="768.6664844069"/>
			<point x="559" y="714.6664844069" type="curve" smooth="yes"/>
			<point x="448" y="541.6664844069"/>
			<point x="374" y="349.6664844069"/>
			<point x="316" y="123.6664844069" type="curve"/>
			<point x="339" y="130.6664844069" type="line"/>
			<point x="223" y="310.6664844069"/>
			<point x="227" y="543.6664844069"/>
			<point x="148" y="693.6664844069" type="curve" smooth="yes"/>
			<point x="120" y="749.6664844069"/>
			<point x="98" y="771.6664844069"/>
			<point x="69" y="771.6664844069" type="curve" smooth="yes"/>
			<point x="55" y="771.6664844069"/>
			<point x="48" y="762.6664844069"/>
			<point x="48" y="749.6664844069" type="curve" smooth="yes"/>
			<point x="48" y="727.6664844069"/>
			<point x="59" y="708.6664844069"/>
			<point x="91" y="657.6664844069" type="curve" smooth="yes"/>
			<point x="149" y="566.6664844069"/>
			<point x="166" y="285.6664844069"/>
			<point x="266" y="123.6664844069" type="curve" smooth="yes"/>
		</contour>
	</outline>
</glyph>
<glyph name="W" format="2">
	<unicode hex="0057"/>
	<advance width="948"/>
	<image fileName="W_.png" xScale="2.149419181" yScale="2.149419181" xOffset="-6246.5221094932" yOffset="-188.078106569" color="0,0,0,0.26332"/>
	<outline>
		<contour>
			<point x="131" y="814.0178381641" type="curve" smooth="yes"/>
			<point x="128" y="864.0178381641"/>
			<point x="122" y="889.0178381641"/>
			<point x="91" y="889.0178381641" type="curve" smooth="yes"/>
			<point x="67" y="889.0178381641"/>
			<point x="58" y="865.0178381641"/>
			<point x="60" y="840.0178381641" type="curve" smooth="yes"/>
			<point x="74" y="645.0178381641"/>
			<point x="144" y="345.0178381641"/>
			<point x="206" y="226.0178381641" type="curve" smooth="yes"/>
			<point x="231" y="179.0178381641"/>
			<point x="251" y="169.0178381641"/>
			<point x="276" y="169.0178381641" type="curve" smooth="yes"/>
			<point x="301" y="169.0178381641"/>
			<point x="321" y="188.0178381641"/>
			<point x="325" y="219.0178381641" type="curve" smooth="yes"/>
			<point x="353" y="420.0178381641"/>
			<point x="397" y="668.0178381641"/>
			<point x="486" y="770.0178381641" type="curve" smooth="yes"/>
			<point x="504" y="790.0178381641"/>
			<point x="454" y="798.0178381641"/>
			<point x="476" y="773.0178381641" type="curve" smooth="yes"/>
			<point x="560" y="675.0178381641"/>
			<point x="539" y="355.0178381641"/>
			<point x="610" y="237.0178381641" type="curve" smooth="yes"/>
			<point x="650" y="171.0178381641"/>
			<point x="675" y="165.0178381641"/>
			<point x="702" y="165.0178381641" type="curve" smooth="yes"/>
			<point x="721" y="165.0178381641"/>
			<point x="737" y="178.0178381641"/>
			<point x="754" y="219.0178381641" type="curve" smooth="yes"/>
			<point x="813" y="365.0178381641"/>
			<point x="827" y="653.0178381641"/>
			<point x="882" y="798.0178381641" type="curve" smooth="yes"/>
			<point x="904" y="858.0178381641"/>
			<point x="899" y="889.0178381641"/>
			<point x="874" y="889.0178381641" type="curve" smooth="yes"/>
			<point x="851" y="889.0178381641"/>
			<point x="841" y="882.0178381641"/>
			<point x="823" y="838.0178381641" type="curve" smooth="yes"/>
			<point x="761" y="681.0178381641"/>
			<point x="752" y="375.0178381641"/>
			<point x="684" y="235.0178381641" type="curve" smooth="yes"/>
			<point x="677" y="221.0178381641"/>
			<point x="705" y="224.0178381641"/>
			<point x="693" y="239.0178381641" type="curve" smooth="yes"/>
			<point x="612" y="341.0178381641"/>
			<point x="627" y="538.0178381641"/>
			<point x="594" y="666.0178381641" type="curve" smooth="yes"/>
			<point x="561" y="787.0178381641"/>
			<point x="532" y="829.0178381641"/>
			<point x="487" y="829.0178381641" type="curve" smooth="yes"/>
			<point x="453" y="829.0178381641"/>
			<point x="423" y="798.0178381641"/>
			<point x="397" y="758.0178381641" type="curve" smooth="yes"/>
			<point x="335" y="663.0178381641"/>
			<point x="288" y="465.0178381641"/>
			<point x="259" y="241.0178381641" type="curve" smooth="yes"/>
			<point x="251" y="179.0178381641"/>
			<point x="279" y="202.0178381641"/>
			<point x="268" y="232.0178381641" type="curve" smooth="yes"/>
			<point x="199" y="419.0178381641"/>
			<point x="140" y="682.0178381641"/>
		</contour>
	</outline>
</glyph>
<glyph name="bracketleft" format="2">
	<unicode hex="005B"/>
	<advance width="492"/>
	<outline>
		<contour>
			<point x="387" y="924.727004904" type="curve" smooth="yes"/>
			<point x="319" y="924.727004904"/>
			<point x="214" y="908.727004904"/>
			<point x="163" y="910.727004904" type="curve"/>
			<point x="203" y="940.727004904" type="line"/>
			<point x="182" y="804.727004904"/>
			<point x="202" y="527.727004904"/>
			<point x="196" y="414.727004904" type="curve" smooth="yes"/>
			<point x="191" y="309.727004904"/>
			<point x="176" y="93.727004904"/>
			<point x="225" y="-34.272995096" type="curve"/>
			<point x="183" y="-19.272995096" type="line"/>
			<point x="221.6666666667" y="-6.3841062071"/>
			<point x="288.2580645161" y="-14.272995096"/>
			<point x="350" y="-14.272995096" type="curve" smooth="yes"/>
			<point x="381.6235294118" y="-14.272995096"/>
			<point x="419.44" y="-8.272995096"/>
			<point x="434" y="-8.272995096" type="curve" smooth="yes"/>
			<point x="451.0857142857" y="-8.272995096"/>
			<point x="460" y="-21.072995096"/>
			<point x="460" y="-36.272995096" type="curve" smooth="yes"/>
			<point x="460" y="-70.772995096"/>
			<point x="427" y="-82.272995096"/>
			<point x="367" y="-82.272995096" type="curve" smooth="yes"/>
			<point x="333" y="-82.272995096"/>
			<point x="296" y="-79.272995096"/>
			<point x="264" y="-79.272995096" type="curve" smooth="yes"/>
			<point x="235" y="-79.272995096"/>
			<point x="213" y="-87.272995096"/>
			<point x="193" y="-87.272995096" type="curve" smooth="yes"/>
			<point x="178" y="-87.272995096"/>
			<point x="169" y="-79.272995096"/>
			<point x="163" y="-68.272995096" type="curve" smooth="yes"/>
			<point x="98" y="53.727004904"/>
			<point x="121" y="303.727004904"/>
			<point x="126" y="418.727004904" type="curve" smooth="yes"/>
			<point x="132" y="532.727004904"/>
			<point x="113" y="813.727004904"/>
			<point x="133" y="950.727004904" type="curve" smooth="yes"/>
			<point x="136" y="969.727004904"/>
			<point x="154" y="980.727004904"/>
			<point x="173" y="980.727004904" type="curve" smooth="yes"/>
			<point x="220.5471698113" y="980.727004904"/>
			<point x="326.2075471698" y="993.727004904"/>
			<point x="397" y="993.727004904" type="curve" smooth="yes"/>
			<point x="435.8311688312" y="993.727004904"/>
			<point x="462" y="989.4214493484"/>
			<point x="462" y="962.727004904" type="curve" smooth="yes"/>
			<point x="462" y="941.0127191897"/>
			<point x="443.1111111111" y="922.727004904"/>
			<point x="422" y="922.727004904" type="curve" smooth="yes"/>
			<point x="408" y="922.727004904"/>
			<point x="400" y="924.727004904"/>
		</contour>
	</outline>
</glyph>
<glyph name="bracketright" format="2">
	<unicode hex="005D"/>
	<advance width="453"/>
	<outline>
		<contour>
			<point x="59" y="-359.0962380373" type="curve" smooth="yes"/>
			<point x="119" y="-359.0962380373"/>
			<point x="260" y="-342.0962380373"/>
			<point x="317" y="-321.0962380373" type="curve"/>
			<point x="294" y="-348.0962380373" type="line"/>
			<point x="336" y="-87.0962380373"/>
			<point x="244" y="249.9037619627"/>
			<point x="268" y="608.9037619627" type="curve"/>
			<point x="309" y="573.9037619627" type="line"/>
			<point x="241" y="559.9037619627"/>
			<point x="148" y="581.9037619627"/>
			<point x="80" y="581.9037619627" type="curve" smooth="yes"/>
			<point x="52" y="581.9037619627"/>
			<point x="30" y="598.9037619627"/>
			<point x="30" y="627.9037619627" type="curve" smooth="yes"/>
			<point x="30" y="640.9037619627"/>
			<point x="36" y="651.9037619627"/>
			<point x="60" y="651.9037619627" type="curve" smooth="yes"/>
			<point x="114" y="651.9037619627"/>
			<point x="183" y="637.9037619627"/>
			<point x="244" y="637.9037619627" type="curve" smooth="yes"/>
			<point x="265" y="637.9037619627"/>
			<point x="286" y="642.9037619627"/>
			<point x="304" y="642.9037619627" type="curve" smooth="yes"/>
			<point x="326" y="642.9037619627"/>
			<point x="340" y="626.9037619627"/>
			<point x="338" y="604.9037619627" type="curve" smooth="yes"/>
			<point x="313" y="241.9037619627"/>
			<point x="406" y="-97.0962380373"/>
			<point x="364" y="-360.0962380373" type="curve" smooth="yes"/>
			<point x="362" y="-372.0962380373"/>
			<point x="353" y="-382.0962380373"/>
			<point x="341" y="-387.0962380373" type="curve" smooth="yes"/>
			<point x="283" y="-409.0962380373"/>
			<point x="143" y="-429.0962380373"/>
			<point x="81" y="-429.0962380373" type="curve" smooth="yes"/>
			<point x="55" y="-429.0962380373"/>
			<point x="30" y="-413.0962380373"/>
			<point x="30" y="-384.0962380373" type="curve" smooth="yes"/>
			<point x="30" y="-371.0962380373"/>
			<point x="35" y="-359.0962380373"/>
		</contour>
	</outline>
</glyph>
<glyph name="h" format="2">
	<unicode hex="0068"/>
	<advance width="613"/>
	<outline>
		<contour>
			<point x="520" y="-104.8599996637" type="curve" smooth="yes"/>
			<point x="536.3636363636" y="-104.8599996637"/>
			<point x="550" y="-91.1099996637"/>
			<point x="550" y="-74.8599996637" type="curve" smooth="yes"/>
			<point x="550" y="-63.0138458175"/>
			<point x="545.1546611495" y="-52.1693219627"/>
			<point x="540" y="-41.8599996637" type="curve" smooth="yes"/>
			<point x="520.335124402" y="-6.6702222778"/>
			<point x="509.1992489216" y="36.7477614796"/>
			<point x="496" y="173.1400003363" type="curve" smooth="yes"/>
			<point x="483.0970316562" y="315.0726521177"/>
			<point x="466" y="399.1400003363"/>
			<point x="389" y="399.1400003363" type="curve" smooth="yes"/>
			<point x="306" y="399.1400003363"/>
			<point x="234" y="303.1400003363"/>
			<point x="127" y="13.1400003363" type="curve"/>
			<point x="145" y="11.1400003363" type="line"/>
			<point x="141" y="200.1400003363"/>
			<point x="193" y="395.1400003363"/>
			<point x="213" y="549.1400003363" type="curve" smooth="yes"/>
			<point x="228" y="670.1400003363"/>
			<point x="217" y="714.1400003363"/>
			<point x="182" y="715.1400003363" type="curve" smooth="yes"/>
			<point x="162" y="715.1400003363"/>
			<point x="153" y="697.1400003363"/>
			<point x="150" y="678.1400003363" type="curve" smooth="yes"/>
			<point x="145" y="637.1400003363"/>
			<point x="149" y="586.1400003363"/>
			<point x="142" y="530.1400003363" type="curve" smooth="yes"/>
			<point x="126" y="399.1400003363"/>
			<point x="75" y="238.1400003363"/>
			<point x="75" y="0.1400003363" type="curve" smooth="yes"/>
			<point x="75" y="-74.8599996637"/>
			<point x="96.5384615385" y="-104.8599996637"/>
			<point x="123" y="-104.8599996637" type="curve" smooth="yes"/>
			<point x="144" y="-104.8599996637"/>
			<point x="160" y="-96.8599996637"/>
			<point x="169" y="-66.8599996637" type="curve" smooth="yes"/>
			<point x="242" y="184.1400003363"/>
			<point x="343" y="334.1400003363"/>
			<point x="388" y="334.1400003363" type="curve"/>
			<point x="413" y="297.1400003363"/>
			<point x="424" y="245.1400003363"/>
			<point x="433" y="115.1400003363" type="curve" smooth="yes"/>
			<point x="440.9649161561" y="1.6399451114"/>
			<point x="480.0823529412" y="-104.8599996637"/>
		</contour>
	</outline>
</glyph>
<glyph name="t" format="2">
	<unicode hex="0074"/>
	<advance width="443"/>
	<outline>
		<contour>
			<point x="148" y="336.0157607112" type="curve" smooth="yes"/>
			<point x="148" y="450.0157607112"/>
			<point x="168" y="490.0157607112"/>
			<point x="183" y="607.0157607112" type="curve" smooth="yes"/>
			<point x="196" y="704.0157607112"/>
			<point x="192" y="756.0157607112"/>
			<point x="158" y="756.0157607112" type="curve" smooth="yes"/>
			<point x="137" y="756.0157607112"/>
			<point x="131" y="744.0157607112"/>
			<point x="129" y="729.0157607112" type="curve" smooth="yes"/>
			<point x="125" y="695.0157607112"/>
			<point x="122" y="659.0157607112"/>
			<point x="114" y="594.0157607112" type="curve" smooth="yes"/>
			<point x="103" y="516.0157607112"/>
			<point x="81" y="442.2149308357"/>
			<point x="81" y="332.0157607112" type="curve" smooth="yes"/>
			<point x="81" y="155.0157607112"/>
			<point x="140" y="37.0157607112"/>
			<point x="301" y="37.0157607112" type="curve" smooth="yes"/>
			<point x="365" y="37.0157607112"/>
			<point x="401" y="68.0157607112"/>
			<point x="401" y="99.0157607112" type="curve" smooth="yes"/>
			<point x="401" y="117.0157607112"/>
			<point x="394.8888888889" y="126.0157607112"/>
			<point x="381" y="126.0157607112" type="curve" smooth="yes"/>
			<point x="354.1126760563" y="126.0157607112"/>
			<point x="355.2816901408" y="103.0157607112"/>
			<point x="298" y="103.0157607112" type="curve" smooth="yes"/>
			<point x="198.9259259259" y="103.0157607112"/>
			<point x="148" y="162.0157607112"/>
		</contour>
		<contour>
			<point x="156" y="437.0157607112" type="curve" smooth="yes"/>
			<point x="208" y="459.0157607112"/>
			<point x="256" y="475.0157607112"/>
			<point x="339" y="482.0157607112" type="curve" smooth="yes"/>
			<point x="364" y="484.0157607112"/>
			<point x="374" y="491.0157607112"/>
			<point x="374" y="510.0157607112" type="curve" smooth="yes"/>
			<point x="374" y="529.0157607112"/>
			<point x="353" y="545.0157607112"/>
			<point x="327" y="545.0157607112" type="curve" smooth="yes"/>
			<point x="280" y="545.0157607112"/>
			<point x="218" y="532.0157607112"/>
			<point x="171" y="514.0157607112" type="curve" smooth="yes"/>
			<point x="119" y="495.0157607112"/>
			<point x="111" y="479.0157607112"/>
			<point x="111" y="455.0157607112" type="curve" smooth="yes"/>
			<point x="111" y="436.0157607112"/>
			<point x="127" y="424.0157607112"/>
		</contour>
	</outline>
</glyph>
<glyph name="w" format="2">
	<unicode hex="0077"/>
	<advance width="857"/>
	<image fileName="b.png" xScale="2.580311745" yScale="2.580311745" xOffset="-5180.8366790108" yOffset="-580.570142633" color="0,0,0,0.24109"/>
	<outline>
		<contour>
			<point x="131" y="631.0469467798" type="curve" smooth="yes"/>
			<point x="187" y="521.0469467798"/>
			<point x="193" y="349.0469467798"/>
			<point x="239" y="252.0469467798" type="curve" smooth="yes"/>
			<point x="255" y="220.0469467798"/>
			<point x="198" y="217.0469467798"/>
			<point x="219" y="249.0469467798" type="curve" smooth="yes"/>
			<point x="258" y="310.0469467798"/>
			<point x="290" y="486.0469467798"/>
			<point x="325" y="576.0469467798" type="curve" smooth="yes"/>
			<point x="357" y="660.0469467798"/>
			<point x="380" y="691.0469467798"/>
			<point x="412" y="691.0469467798" type="curve" smooth="yes"/>
			<point x="462" y="691.0469467798"/>
			<point x="491" y="643.0469467798"/>
			<point x="537" y="526.0469467798" type="curve" smooth="yes"/>
			<point x="565" y="451.0469467798"/>
			<point x="601" y="317.0469467798"/>
			<point x="651" y="259.0469467798" type="curve" smooth="yes"/>
			<point x="687" y="215.0469467798"/>
			<point x="619" y="205.0469467798"/>
			<point x="639" y="255.0469467798" type="curve" smooth="yes"/>
			<point x="684" y="352.0469467798"/>
			<point x="678" y="490.0469467798"/>
			<point x="709" y="596.0469467798" type="curve" smooth="yes"/>
			<point x="726" y="653.0469467798"/>
			<point x="757.1134020619" y="693.0469467798"/>
			<point x="796" y="693.0469467798" type="curve" smooth="yes"/>
			<point x="809.6610169492" y="693.0469467798"/>
			<point x="822" y="682.0469467798"/>
			<point x="822" y="671.0469467798" type="curve" smooth="yes"/>
			<point x="822" y="650.0469467798"/>
			<point x="811" y="630.0469467798"/>
			<point x="795" y="616.0469467798" type="curve" smooth="yes"/>
			<point x="758.0142863551" y="582.5017646368"/>
			<point x="749.9818105705" y="449.315429653"/>
			<point x="736" y="360.0469467798" type="curve" smooth="yes"/>
			<point x="713" y="216.0469467798"/>
			<point x="696" y="186.0469467798"/>
			<point x="652" y="186.0469467798" type="curve" smooth="yes"/>
			<point x="618.3979591837" y="186.0469467798"/>
			<point x="601" y="203.0469467798"/>
			<point x="563" y="265.0469467798" type="curve" smooth="yes"/>
			<point x="503" y="365.0469467798"/>
			<point x="473" y="555.0469467798"/>
			<point x="413" y="621.0469467798" type="curve" smooth="yes"/>
			<point x="381" y="654.0469467798"/>
			<point x="447" y="654.0469467798"/>
			<point x="426" y="627.0469467798" type="curve" smooth="yes"/>
			<point x="375" y="564.0469467798"/>
			<point x="350" y="394.0469467798"/>
			<point x="297" y="257.0469467798" type="curve" smooth="yes"/>
			<point x="274" y="199.0469467798"/>
			<point x="261" y="184.0469467798"/>
			<point x="223" y="184.0469467798" type="curve" smooth="yes"/>
			<point x="195" y="184.0469467798"/>
			<point x="171" y="210.0469467798"/>
			<point x="151" y="296.0469467798" type="curve" smooth="yes"/>
			<point x="127" y="397.0469467798"/>
			<point x="110" y="544.0469467798"/>
			<point x="52" y="634.0469467798" type="curve" smooth="yes"/>
			<point x="26" y="673.0469467798"/>
			<point x="36" y="694.0469467798"/>
			<point x="64" y="694.0469467798" type="curve" smooth="yes"/>
			<point x="82" y="694.0469467798"/>
			<point x="103" y="689.0469467798"/>
		</contour>
	</outline>
</glyph>
<glyph name="x" format="2">
	<unicode hex="0078"/>
	<advance width="499"/>
	<image fileName="b.png" xScale="2.580311745" yScale="2.580311745" xOffset="-6195.2985653972" yOffset="-580.570142633" color="0,0,0,0.24109"/>
	<outline>
		<contour>
			<point x="447" y="356.7042008345" type="curve" smooth="yes"/>
			<point x="296.6124922468" y="267.838855344"/>
			<point x="187" y="106.7042008345"/>
			<point x="126" y="-50.2957991655" type="curve" smooth="yes"/>
			<point x="118" y="-72.2957991655"/>
			<point x="105" y="-82.2957991655"/>
			<point x="94" y="-82.2957991655" type="curve" smooth="yes"/>
			<point x="81" y="-82.2957991655"/>
			<point x="64" y="-77.2957991655"/>
			<point x="64" y="-41.2957991655" type="curve" smooth="yes"/>
			<point x="64" y="22.7042008345"/>
			<point x="172" y="220.7042008345"/>
			<point x="338" y="358.7042008345" type="curve" smooth="yes"/>
			<point x="410" y="418.7042008345"/>
			<point x="432" y="427.7042008345"/>
			<point x="455" y="427.7042008345" type="curve" smooth="yes"/>
			<point x="471" y="427.7042008345"/>
			<point x="481" y="418.7042008345"/>
			<point x="481" y="404.7042008345" type="curve" smooth="yes"/>
			<point x="481" y="388.7042008345"/>
			<point x="473" y="372.7042008345"/>
		</contour>
		<contour>
			<point x="200" y="314.7042008345"/>
			<point x="351" y="127.7042008345"/>
			<point x="412" y="42.7042008345" type="curve" smooth="yes"/>
			<point x="453" y="-15.2957991655"/>
			<point x="459" y="-42.2957991655"/>
			<point x="459" y="-61.2957991655" type="curve" smooth="yes"/>
			<point x="459" y="-72.2957991655"/>
			<point x="453" y="-79.2957991655"/>
			<point x="443" y="-79.2957991655" type="curve" smooth="yes"/>
			<point x="427" y="-79.2957991655"/>
			<point x="405" y="-69.2957991655"/>
			<point x="384" y="-38.2957991655" type="curve" smooth="yes"/>
			<point x="295" y="85.7042008345"/>
			<point x="172" y="256.7042008345"/>
			<point x="79" y="335.7042008345" type="curve" smooth="yes"/>
			<point x="46" y="363.7042008345"/>
			<point x="26" y="382.7042008345"/>
			<point x="26" y="404.7042008345" type="curve" smooth="yes"/>
			<point x="26" y="415.7042008345"/>
			<point x="33" y="425.7042008345"/>
			<point x="50" y="425.7042008345" type="curve" smooth="yes"/>
			<point x="76" y="425.7042008345"/>
			<point x="93" y="414.7042008345"/>
			<point x="133" y="377.7042008345" type="curve" smooth="yes"/>
		</contour>
	</outline>
</glyph>
<glyph name="y" format="2">
	<unicode hex="0079"/>
	<advance width="563"/>
	<image fileName="b.png" xScale="2.580311745" yScale="2.580311745" xOffset="-6701.815296469" yOffset="-580.570142633" color="0,0,0,0.24109"/>
	<outline>
		<contour>
			<point x="139" y="342.6248756539" type="curve" smooth="yes"/>
			<point x="143" y="404.6248756539"/>
			<point x="132" y="418.6248756539"/>
			<point x="113" y="418.6248756539" type="curve" smooth="yes"/>
			<point x="88" y="418.6248756539"/>
			<point x="68" y="393.7266720611"/>
			<point x="68" y="264.6248756539" type="curve" smooth="yes"/>
			<point x="68" y="45.2110825505"/>
			<point x="132" y="-50.3751243461"/>
			<point x="236" y="-50.3751243461" type="curve" smooth="yes"/>
			<point x="294.8586956522" y="-50.3751243461"/>
			<point x="379" y="-11.3751243461"/>
			<point x="427" y="192.6248756539" type="curve" smooth="yes"/>
			<point x="435" y="228.6248756539"/>
			<point x="393.9942274747" y="257.6960701325"/>
			<point x="397" y="220.6248756539" type="curve" smooth="yes"/>
			<point x="400" y="48.6248756539"/>
			<point x="418" y="-12.3751243461"/>
			<point x="418" y="-83.3751243461" type="curve" smooth="yes"/>
			<point x="418" y="-196.2109452416"/>
			<point x="386" y="-272.3751243461"/>
			<point x="281" y="-272.3751243461" type="curve" smooth="yes"/>
			<point x="178.7" y="-272.3751243461"/>
			<point x="168.8" y="-242.3751243461"/>
			<point x="138" y="-242.3751243461" type="curve" smooth="yes"/>
			<point x="117" y="-242.3751243461"/>
			<point x="108" y="-253.3751243461"/>
			<point x="108" y="-269.3751243461" type="curve" smooth="yes"/>
			<point x="108" y="-314.8751243461"/>
			<point x="179.2962962963" y="-339.3751243461"/>
			<point x="283" y="-339.3751243461" type="curve" smooth="yes"/>
			<point x="401" y="-339.3751243461"/>
			<point x="485" y="-265.3751243461"/>
			<point x="485" y="-83.3751243461" type="curve" smooth="yes"/>
			<point x="485" y="108.6248756539"/>
			<point x="445" y="152.6248756539"/>
			<point x="462" y="321.6248756539" type="curve" smooth="yes"/>
			<point x="469.9019884861" y="398.0107643527"/>
			<point x="444.8095238095" y="417.6248756539"/>
			<point x="424" y="417.6248756539" type="curve" smooth="yes"/>
			<point x="404.28" y="417.6248756539"/>
			<point x="399.0020266342" y="410.6436220201"/>
			<point x="395" y="373.6248756539" type="curve" smooth="yes"/>
			<point x="373.825514965" y="169.2910950669"/>
			<point x="320.7337278107" y="14.6248756539"/>
			<point x="232" y="14.6248756539" type="curve" smooth="yes"/>
			<point x="160.3793103448" y="14.6248756539"/>
			<point x="127" y="147.6248756539"/>
		</contour>
	</outline>
</glyph>
<glyph name="quoteleft" format="2">
	<unicode hex="2018"/>
	<advance width="212"/>
	<image fileName="quoteleft.png" xScale="2.7154088417" yScale="2.7154088417" xOffset="-110.4273808669" yOffset="-445.4316255776" color="0,0,0,0.31832"/>
	<outline>
		<contour>
			<point x="213" y="896.835618105" type="curve" smooth="yes"/>
			<point x="195" y="896.835618105"/>
			<point x="182" y="890.835618105"/>
			<point x="153" y="853.835618105" type="curve" smooth="yes"/>
			<point x="97" y="781.835618105"/>
			<point x="60" y="688.835618105"/>
			<point x="60" y="614.835618105" type="curve" smooth="yes"/>
			<point x="60" y="576.835618105"/>
			<point x="77" y="542.835618105"/>
			<point x="102" y="542.835618105" type="curve" smooth="yes"/>
			<point x="121" y="542.835618105"/>
			<point x="131" y="556.835618105"/>
			<point x="143" y="611.835618105" type="curve" smooth="yes"/>
			<point x="155" y="667.835618105"/>
			<point x="176" y="733.835618105"/>
			<point x="232" y="800.835618105" type="curve" smooth="yes"/>
			<point x="253" y="825.835618105"/>
			<point x="256" y="833.835618105"/>
			<point x="256" y="842.835618105" type="curve" smooth="yes"/>
			<point x="257" y="866.835618105"/>
			<point x="241" y="896.835618105"/>
		</contour>
	</outline>
</glyph>
<glyph name="quoteright" format="2">
	<unicode hex="2019"/>
	<advance width="212"/>
	<image fileName="quoteleft.png" xScale="2.7154088417" yScale="2.7154088417" xOffset="-2559.4273808669" yOffset="-445.4316255776" color="0,0,0,0.31832"/>
	<outline>
		<contour>
			<point x="190" y="910.8813505884" type="curve" smooth="yes"/>
			<point x="171" y="910.8813505884"/>
			<point x="160" y="902.8813505884"/>
			<point x="136" y="858.8813505884" type="curve" smooth="yes"/>
			<point x="91" y="776.8813505884"/>
			<point x="55" y="660.8813505884"/>
			<point x="55" y="582.8813505884" type="curve" smooth="yes"/>
			<point x="55" y="539.8813505884"/>
			<point x="72" y="513.8813505884"/>
			<point x="97" y="513.8813505884" type="curve" smooth="yes"/>
			<point x="116" y="513.8813505884"/>
			<point x="125" y="525.8813505884"/>
			<point x="135" y="572.8813505884" type="curve" smooth="yes"/>
			<point x="148" y="632.8813505884"/>
			<point x="152" y="698.8813505884"/>
			<point x="208" y="788.8813505884" type="curve" smooth="yes"/>
			<point x="237" y="835.8813505884"/>
			<point x="240" y="846.8813505884"/>
			<point x="240" y="859.8813505884" type="curve" smooth="yes"/>
			<point x="240" y="882.8813505884"/>
			<point x="213" y="910.8813505884"/>
		</contour>
	</outline>
</glyph>
<glyph name="quotedblright" format="2">
	<unicode hex="201D"/>
	<advance width="435"/>
	<outline>
		<contour>
			<point x="190" y="612.6694312999" type="curve" smooth="yes"/>
			<point x="171" y="612.6694312999"/>
			<point x="160" y="604.6694312999"/>
			<point x="136" y="560.6694312999" type="curve" smooth="yes"/>
			<point x="91" y="478.6694312999"/>
			<point x="55" y="362.6694312999"/>
			<point x="55" y="284.6694312999" type="curve" smooth="yes"/>
			<point x="55" y="241.6694312999"/>
			<point x="72" y="215.6694312999"/>
			<point x="97" y="215.6694312999" type="curve" smooth="yes"/>
			<point x="116" y="215.6694312999"/>
			<point x="125" y="227.6694312999"/>
			<point x="135" y="274.6694312999" type="curve" smooth="yes"/>
			<point x="148" y="334.6694312999"/>
			<point x="152" y="400.6694312999"/>
			<point x="208" y="490.6694312999" type="curve" smooth="yes"/>
			<point x="237" y="537.6694312999"/>
			<point x="240" y="548.6694312999"/>
			<point x="240" y="561.6694312999" type="curve" smooth="yes"/>
			<point x="240" y="584.6694312999"/>
			<point x="213" y="612.6694312999"/>
		</contour>
		<contour>
			<point x="370" y="552.6694312999" type="curve" smooth="yes"/>
			<point x="351" y="552.6694312999"/>
			<point x="340" y="544.6694312999"/>
			<point x="316" y="500.6694312999" type="curve" smooth="yes"/>
			<point x="281.6401851185" y="438.0582130713"/>
			<point x="255" y="352.8868226042"/>
			<point x="255" y="294.6694312999" type="curve" smooth="yes"/>
			<point x="255" y="251.6694312999"/>
			<point x="272" y="225.6694312999"/>
			<point x="297" y="225.6694312999" type="curve" smooth="yes"/>
			<point x="316" y="225.6694312999"/>
			<point x="325" y="237.6694312999"/>
			<point x="335" y="284.6694312999" type="curve" smooth="yes"/>
			<point x="343.8854952264" y="325.6794092677"/>
			<point x="348.0059341639" y="366.3932540634"/>
			<point x="388" y="430.6694312999" type="curve" smooth="yes"/>
			<point x="417" y="477.6694312999"/>
			<point x="420" y="488.6694312999"/>
			<point x="420" y="501.6694312999" type="curve" smooth="yes"/>
			<point x="420" y="524.6694312999"/>
			<point x="393" y="552.6694312999"/>
		</contour>
	</outline>
</glyph>
<glyph name="minute" format="2">
	<unicode hex="2032"/>
	<advance width="259"/>
	<outline>
		<contour>
			<point x="107" y="355.9963588132" type="curve" smooth="yes"/>
			<point x="124" y="355.9963588132"/>
			<point x="135" y="365.9963588132"/>
			<point x="147" y="389.9963588132" type="curve" smooth="yes"/>
			<point x="173" y="445.9963588132"/>
			<point x="190" y="532.9963588132"/>
			<point x="190" y="591.9963588132" type="curve" smooth="yes"/>
			<point x="190" y="634.9963588132"/>
			<point x="170" y="647.9963588132"/>
			<point x="149" y="647.9963588132" type="curve" smooth="yes"/>
			<point x="128" y="647.9963588132"/>
			<point x="118" y="634.9963588132"/>
			<point x="118" y="605.9963588132" type="curve" smooth="yes"/>
			<point x="118" y="437.9963588132"/>
			<point x="83" y="421.9963588132"/>
			<point x="83" y="379.9963588132" type="curve" smooth="yes"/>
			<point x="83" y="362.9963588132"/>
			<point x="94" y="355.9963588132"/>
		</contour>
	</outline>
</glyph>
<glyph name="second" format="2">
	<unicode hex="2033"/>
	<advance width="419"/>
	<outline>
		<contour>
			<point x="79" y="528.4967743032" type="curve" smooth="yes"/>
			<point x="96" y="528.4967743032"/>
			<point x="107" y="538.4967743032"/>
			<point x="119" y="562.4967743032" type="curve" smooth="yes"/>
			<point x="145" y="618.4967743032"/>
			<point x="162" y="705.4967743032"/>
			<point x="162" y="764.4967743032" type="curve" smooth="yes"/>
			<point x="162" y="807.4967743032"/>
			<point x="142" y="820.4967743032"/>
			<point x="121" y="820.4967743032" type="curve" smooth="yes"/>
			<point x="100" y="820.4967743032"/>
			<point x="90" y="807.4967743032"/>
			<point x="90" y="778.4967743032" type="curve" smooth="yes"/>
			<point x="90" y="610.4967743032"/>
			<point x="55" y="594.4967743032"/>
			<point x="55" y="552.4967743032" type="curve" smooth="yes"/>
			<point x="55" y="535.4967743032"/>
			<point x="66" y="528.4967743032"/>
		</contour>
		<contour>
			<point x="287" y="528.4967743032" type="curve" smooth="yes"/>
			<point x="304" y="528.4967743032"/>
			<point x="315" y="538.4967743032"/>
			<point x="327" y="562.4967743032" type="curve" smooth="yes"/>
			<point x="353" y="618.4967743032"/>
			<point x="370" y="705.4967743032"/>
			<point x="370" y="764.4967743032" type="curve" smooth="yes"/>
			<point x="370" y="807.4967743032"/>
			<point x="350" y="820.4967743032"/>
			<point x="329" y="820.4967743032" type="curve" smooth="yes"/>
			<point x="308" y="820.4967743032"/>
			<point x="298" y="807.4967743032"/>
			<point x="298" y="778.4967743032" type="curve" smooth="yes"/>
			<point x="298" y="610.4967743032"/>
			<point x="263" y="594.4967743032"/>
			<point x="263" y="552.4967743032" type="curve" smooth="yes"/>
			<point x="263" y="535.4967743032"/>
			<point x="274" y="528.4967743032"/>
		</contour>
	</outline>
</glyph>
<glyph name="trademark" format="2">
	<unicode hex="2122"/>
	<advance width="950"/>
	<outline>
		<contour>
			<point x="167" y="596.6121518575" type="curve" smooth="yes"/>
			<point x="153" y="434.6121518575"/>
			<point x="157" y="353.6121518575"/>
			<point x="166" y="300.6121518575" type="curve" smooth="yes"/>
			<point x="174" y="255.6121518575"/>
			<point x="191" y="243.6121518575"/>
			<point x="209" y="243.6121518575" type="curve" smooth="yes"/>
			<point x="224" y="243.6121518575"/>
			<point x="232" y="248.6121518575"/>
			<point x="232" y="265.6121518575" type="curve" smooth="yes"/>
			<point x="232" y="289.6121518575"/>
			<point x="210" y="346.6121518575"/>
			<point x="225" y="558.6121518575" type="curve" smooth="yes"/>
			<point x="228" y="609.6121518575"/>
			<point x="220" y="627.6121518575"/>
			<point x="192" y="627.6121518575" type="curve" smooth="yes"/>
			<point x="178" y="627.6121518575"/>
			<point x="168" y="615.6121518575"/>
		</contour>
		<contour>
			<point x="86" y="601.6121518575" type="curve" smooth="yes"/>
			<point x="158.5526962352" y="597.5246760133"/>
			<point x="208.3414634146" y="593.6121518575"/>
			<point x="295" y="593.6121518575" type="curve" smooth="yes"/>
			<point x="330.0526315789" y="593.6121518575"/>
			<point x="367" y="608.6121518575"/>
			<point x="367" y="638.6121518575" type="curve" smooth="yes"/>
			<point x="367" y="651.6121518575"/>
			<point x="360" y="660.6121518575"/>
			<point x="344" y="660.6121518575" type="curve" smooth="yes"/>
			<point x="316.3033707865" y="660.6121518575"/>
			<point x="303.8876404494" y="651.6121518575"/>
			<point x="259" y="651.6121518575" type="curve" smooth="yes"/>
			<point x="186.58" y="651.6121518575"/>
			<point x="141.7" y="658.6121518575"/>
			<point x="55" y="658.6121518575" type="curve" smooth="yes"/>
			<point x="34.84" y="658.6121518575"/>
			<point x="27" y="648.9279413312"/>
			<point x="27" y="635.6121518575" type="curve" smooth="yes"/>
			<point x="27" y="616.8226781733"/>
			<point x="37.548462456" y="603.7187404464"/>
		</contour>
		<contour>
			<point x="791" y="591.6121518575" type="curve"/>
			<point x="810" y="583.6121518575" type="line"/>
			<point x="771" y="535.6121518575"/>
			<point x="763" y="399.6121518575"/>
			<point x="703" y="268.6121518575" type="curve" smooth="yes"/>
			<point x="696" y="252.6121518575"/>
			<point x="687" y="245.6121518575"/>
			<point x="673" y="245.6121518575" type="curve" smooth="yes"/>
			<point x="662" y="245.6121518575"/>
			<point x="650" y="251.6121518575"/>
			<point x="641" y="266.6121518575" type="curve" smooth="yes"/>
			<point x="616" y="304.6121518575"/>
			<point x="603" y="376.6121518575"/>
			<point x="593" y="451.6121518575" type="curve" smooth="yes"/>
			<point x="586" y="504.6121518575"/>
			<point x="577" y="546.6121518575"/>
			<point x="563" y="585.6121518575" type="curve"/>
			<point x="568" y="585.6121518575" type="line"/>
			<point x="537" y="519.6121518575"/>
			<point x="514" y="404.6121518575"/>
			<point x="514" y="267.6121518575" type="curve" smooth="yes"/>
			<point x="514" y="251.6121518575"/>
			<point x="504" y="243.6121518575"/>
			<point x="494" y="243.6121518575" type="curve" smooth="yes"/>
			<point x="463" y="243.6121518575"/>
			<point x="450" y="278.6121518575"/>
			<point x="450" y="349.6121518575" type="curve" smooth="yes"/>
			<point x="450" y="407.6121518575"/>
			<point x="456" y="450.6121518575"/>
			<point x="456" y="494.6121518575" type="curve" smooth="yes"/>
			<point x="456" y="581.6121518575"/>
			<point x="434" y="608.6121518575"/>
			<point x="434" y="634.6121518575" type="curve" smooth="yes"/>
			<point x="434" y="644.6121518575"/>
			<point x="440" y="652.6121518575"/>
			<point x="453" y="652.6121518575" type="curve" smooth="yes"/>
			<point x="489" y="652.6121518575"/>
			<point x="510" y="598.6121518575"/>
			<point x="512" y="537.6121518575" type="curve"/>
			<point x="502" y="533.6121518575" type="line"/>
			<point x="516" y="616.6121518575"/>
			<point x="540" y="659.6121518575"/>
			<point x="572" y="659.6121518575" type="curve" smooth="yes"/>
			<point x="614" y="659.6121518575"/>
			<point x="635" y="583.6121518575"/>
			<point x="655" y="427.6121518575" type="curve" smooth="yes"/>
			<point x="659" y="398.6121518575"/>
			<point x="663" y="359.6121518575"/>
			<point x="680" y="319.6121518575" type="curve"/>
			<point x="664" y="329.6121518575" type="line"/>
			<point x="699" y="395.6121518575"/>
			<point x="716" y="512.6121518575"/>
			<point x="740" y="575.6121518575" type="curve" smooth="yes"/>
			<point x="760" y="629.6121518575"/>
			<point x="779" y="658.6121518575"/>
			<point x="806" y="658.6121518575" type="curve" smooth="yes"/>
			<point x="833" y="658.6121518575"/>
			<point x="871" y="637.6121518575"/>
			<point x="876" y="512.6121518575" type="curve" smooth="yes"/>
			<point x="879" y="437.6121518575"/>
			<point x="893" y="351.6121518575"/>
			<point x="917" y="285.6121518575" type="curve" smooth="yes"/>
			<point x="925" y="261.6121518575"/>
			<point x="918" y="245.6121518575"/>
			<point x="899" y="245.6121518575" type="curve" smooth="yes"/>
			<point x="881" y="245.6121518575"/>
			<point x="866" y="255.6121518575"/>
			<point x="851" y="288.6121518575" type="curve" smooth="yes"/>
			<point x="829" y="334.6121518575"/>
			<point x="819" y="427.6121518575"/>
			<point x="815" y="494.6121518575" type="curve" smooth="yes"/>
			<point x="813" y="539.6121518575"/>
			<point x="806" y="566.6121518575"/>
		</contour>
	</outline>
</glyph>
